<svg xmlns="http://www.w3.org/2000/svg" width="1023" height="685.017" viewBox="0 0 1023 685.017">
  <g id="undraw_reviews_lp8w" transform="translate(0)">
    <path id="Caminho_126" data-name="Caminho 126" d="M859.321,521.452a13.423,13.423,0,0,1,2.067-.442l27.935-56.761-8.528-12.785,17.613-15.393,22.142,27.095-45.095,65.629a13.389,13.389,0,1,1-16.134-7.341Z" transform="translate(-19.633 -111.331)" fill="#a0616a"/>
    <path id="Caminho_127" data-name="Caminho 127" d="M905.98,449.68a5.756,5.756,0,0,1-1.3,1.022L876.1,467.271a5.74,5.74,0,0,1-8.067-2.51l-13.9-29.369a5.71,5.71,0,0,1,1.961-7.2l17.718-12.053a5.743,5.743,0,0,1,7.294.694l24.764,24.851a5.745,5.745,0,0,1,.109,8Z" transform="translate(-18.605 -117.099)" fill="#b8c9e1"/>
    <path id="Caminho_128" data-name="Caminho 128" d="M735.327,528.266l-15.091,4.106-23.019-56.252,22.273-6.061Z" transform="translate(192.179 129.566)" fill="#a0616a"/>
    <path id="Caminho_129" data-name="Caminho 129" d="M18.99,0H49.151V18.99H0A18.99,18.99,0,0,1,18.99,0Z" transform="translate(882.139 665.541) rotate(-15.221)" fill="#2f2e41"/>
    <path id="Caminho_130" data-name="Caminho 130" d="M630.948,537.751H615.31l-7.441-60.322H630.95Z" transform="translate(167.551 131.597)" fill="#a0616a"/>
    <path id="Caminho_131" data-name="Caminho 131" d="M609.047,521.212h30.161V540.2H590.057A18.991,18.991,0,0,1,609.047,521.212Z" transform="translate(162.642 143.666)" fill="#2f2e41"/>
    <circle id="Elipse_7" data-name="Elipse 7" cx="31.331" cy="31.331" r="31.331" transform="translate(783.646 216.353)" fill="#a0616a"/>
    <path id="Caminho_132" data-name="Caminho 132" d="M830.738,724.6H809.368a5.757,5.757,0,0,1-5.735-5.386c-6.368-101.236-2.643-173.855,11.723-228.535a5.955,5.955,0,0,1,.233-.7l1.145-2.862a5.713,5.713,0,0,1,5.33-3.609h43.948a5.731,5.731,0,0,1,4.359,2l5.969,6.965c.117.136.226.274.33.42,26.917,37.537,51.04,110.922,78.978,209.559a5.721,5.721,0,0,1-3.774,7.037l-22.968,7.35a5.771,5.771,0,0,1-6.92-2.975l-59.6-123.618a4.465,4.465,0,0,0-8.445,1.334L836.426,719.633A5.763,5.763,0,0,1,830.738,724.6Z" transform="translate(-33.197 -98.257)" fill="#008940"/>
    <path id="Caminho_133" data-name="Caminho 133" d="M871.174,516l-.18,0-53.383-1.685a5.722,5.722,0,0,1-5.522-5.044c-6.767-54.778,11.792-69.452,20.086-73.218a4.413,4.413,0,0,0,2.567-3.5l.717-5.742a5.72,5.72,0,0,1,1.134-2.788c13-16.845,30.759-22.239,40.186-23.954a5.732,5.732,0,0,1,6.7,4.911l1.075,8.244a4.541,4.541,0,0,0,.91,2.158c27.119,35.453-3.093,87.8-9.425,97.931h0A5.751,5.751,0,0,1,871.174,516Z" transform="translate(-30.441 -121.279)" fill="#b8c9e1"/>
    <path id="Caminho_134" data-name="Caminho 134" d="M908.775,387.408a124.7,124.7,0,0,0-24.881-26.048c-7.907-6.176-16.708-11.452-26.418-13.976s-20.434-2.094-29.293,2.614-18.019,14.063-18.075,24.1c-.017,3.223.8,7.584,3.976,7.026l.918.122,22.97-4.639q4.892,16.976,9.783,33.952c.688,2.385,1.609,5.053,3.874,6.07,2.133.958,4.6.055,6.756-.845.355-.148,3.4-6.993,3.4-6.993a1.276,1.276,0,0,1,2.2-.368l1.811,2.264a2.551,2.551,0,0,0,2.975.76l37.46-15.638c1.725-.72,3.654-1.661,4.154-3.463C910.867,390.615,909.811,388.87,908.775,387.408Z" transform="translate(-30.586 -136.197)" fill="#2f2e41"/>
    <path id="Caminho_135" data-name="Caminho 135" d="M1083.218,719.051H699.252a1.276,1.276,0,1,1,0-2.551h383.967a1.276,1.276,0,1,1,0,2.551Z" transform="translate(-61.494 -34.034)" fill="#133e79"/>
    <path id="Caminho_136" data-name="Caminho 136" d="M843.266,571.006a4.086,4.086,0,0,1-2.41-.8l-5.807-4.219a2.814,2.814,0,0,0-3.319,0l-5.807,4.219a4.1,4.1,0,0,1-6.308-4.583l2.218-6.826a2.816,2.816,0,0,0-1.026-3.157L815,551.424a4.1,4.1,0,0,1,2.41-7.415h7.177a2.817,2.817,0,0,0,2.686-1.951l2.218-6.826a4.1,4.1,0,0,1,7.8,0l2.218,6.826a2.816,2.816,0,0,0,2.685,1.951h7.177a4.1,4.1,0,0,1,2.41,7.415l-5.807,4.219a2.817,2.817,0,0,0-1.026,3.157l2.218,6.826a4.038,4.038,0,0,1-1.489,4.582,4.085,4.085,0,0,1-2.409.8Z" transform="translate(-29.703 -84.779)" fill="#133e79"/>
    <path id="Caminho_137" data-name="Caminho 137" d="M858.891,582.364a13.7,13.7,0,0,0,1.794-20.936L870.6,441.682l-29.523,4.061-.562,116.344a13.778,13.778,0,0,0,18.375,20.277Z" transform="translate(-23.138 -109.784)" fill="#a0616a"/>
    <path id="Caminho_138" data-name="Caminho 138" d="M872.973,466.243a5.756,5.756,0,0,1-1.633-.237l-31.695-9.322a5.74,5.74,0,0,1-3.734-7.579l11.729-30.3a5.71,5.71,0,0,1,6.573-3.535l20.939,4.552a5.743,5.743,0,0,1,4.518,5.768l-.974,35.07a5.745,5.745,0,0,1-5.724,5.585Z" transform="translate(-23.58 -117.102)" fill="#b8c9e1"/>
    <path id="Caminho_139" data-name="Caminho 139" d="M750.1,611.365H207.953a8.939,8.939,0,0,1-8.929-8.929V440.429a8.939,8.939,0,0,1,8.929-8.929H750.1a8.94,8.94,0,0,1,8.93,8.929V602.435a8.94,8.94,0,0,1-8.929,8.93ZM207.953,434.051a6.386,6.386,0,0,0-6.378,6.378V602.435a6.386,6.386,0,0,0,6.378,6.378H750.1a6.386,6.386,0,0,0,6.378-6.378V440.429a6.386,6.386,0,0,0-6.378-6.378Z" transform="translate(-199.024 -112.591)" fill="#133e79"/>
    <path id="Caminho_140" data-name="Caminho 140" d="M399.928,636.195a5.006,5.006,0,0,1-2.952-.977l-7.113-5.168a3.447,3.447,0,0,0-4.066,0l-7.113,5.168a5.022,5.022,0,0,1-7.728-5.614l2.717-8.362a3.451,3.451,0,0,0-1.256-3.868l-7.113-5.168a5.022,5.022,0,0,1,2.951-9.084h8.793a3.45,3.45,0,0,0,3.29-2.39l2.717-8.362a5.022,5.022,0,0,1,9.552,0l2.717,8.362a3.45,3.45,0,0,0,3.289,2.39h8.793a5.022,5.022,0,0,1,2.951,9.084l-7.113,5.168a3.451,3.451,0,0,0-1.256,3.868L404.7,629.6a4.946,4.946,0,0,1-1.824,5.614,5.006,5.006,0,0,1-2.951.977Z" transform="translate(-153.762 -69.206)" fill="#133e79"/>
    <path id="Caminho_141" data-name="Caminho 141" d="M456.436,636.195a5.005,5.005,0,0,1-2.952-.977l-7.114-5.168a3.447,3.447,0,0,0-4.066,0l-7.114,5.168a5.022,5.022,0,0,1-7.728-5.614l2.717-8.362a3.451,3.451,0,0,0-1.256-3.868l-7.114-5.168a5.022,5.022,0,0,1,2.952-9.084h8.793a3.45,3.45,0,0,0,3.29-2.39l2.717-8.362a5.021,5.021,0,0,1,9.552,0l2.717,8.362a3.451,3.451,0,0,0,3.29,2.39h8.793a5.022,5.022,0,0,1,2.952,9.084l-7.114,5.168a3.451,3.451,0,0,0-1.257,3.868l2.717,8.362a4.946,4.946,0,0,1-1.824,5.614,5.007,5.007,0,0,1-2.951.977Z" transform="translate(-138.186 -69.206)" fill="#133e79"/>
    <path id="Caminho_142" data-name="Caminho 142" d="M512.945,636.195a5,5,0,0,1-2.951-.977l-7.114-5.168a3.455,3.455,0,0,0-4.066,0l-7.113,5.168a5.021,5.021,0,0,1-7.727-5.614l2.717-8.362a3.451,3.451,0,0,0-1.256-3.868l-7.114-5.168a5.022,5.022,0,0,1,2.952-9.084h8.793a3.45,3.45,0,0,0,3.29-2.39l2.717-8.362a5.021,5.021,0,0,1,9.552,0l2.717,8.362a3.45,3.45,0,0,0,3.29,2.39h8.793a5.022,5.022,0,0,1,2.952,9.084l-7.113,5.168A3.451,3.451,0,0,0,515,621.241l2.717,8.362a4.947,4.947,0,0,1-1.824,5.614,5.008,5.008,0,0,1-2.952.977Z" transform="translate(-122.61 -69.206)" fill="#133e79"/>
    <path id="Caminho_143" data-name="Caminho 143" d="M569.453,636.194a5.006,5.006,0,0,1-2.952-.977l-7.113-5.168a3.447,3.447,0,0,0-4.066,0l-7.113,5.168a5.022,5.022,0,0,1-7.728-5.614l2.717-8.362a3.449,3.449,0,0,0-1.257-3.867l-7.114-5.169a5.022,5.022,0,0,1,2.952-9.084h8.793a3.451,3.451,0,0,0,3.29-2.39l2.717-8.362a5.021,5.021,0,0,1,9.552,0l2.717,8.362a3.45,3.45,0,0,0,3.289,2.39h8.793a5.022,5.022,0,0,1,2.952,9.084l-7.114,5.168a3.451,3.451,0,0,0-1.256,3.868l2.717,8.362a4.946,4.946,0,0,1-1.824,5.614A5.006,5.006,0,0,1,569.453,636.194Z" transform="translate(-107.034 -69.206)" fill="#133e79"/>
    <path id="Caminho_144" data-name="Caminho 144" d="M601.873,636.8a5.5,5.5,0,0,1-3.242-1.073,5.435,5.435,0,0,1-2-6.168l2.718-8.362a2.957,2.957,0,0,0-1.077-3.314l-7.114-5.169a5.516,5.516,0,0,1,3.242-9.978h8.792a2.957,2.957,0,0,0,2.819-2.049l2.717-8.362a5.516,5.516,0,0,1,10.492,0l2.717,8.362a2.957,2.957,0,0,0,2.819,2.049h8.793a5.516,5.516,0,0,1,3.242,9.978l-7.114,5.169A2.956,2.956,0,0,0,628.6,621.2l2.717,8.362a5.516,5.516,0,0,1-8.488,6.167l-7.113-5.168a2.957,2.957,0,0,0-3.485,0l-7.114,5.168A5.5,5.5,0,0,1,601.873,636.8Zm12.1-9.362a5.5,5.5,0,0,1,3.241,1.056l7.114,5.168a2.964,2.964,0,0,0,4.562-3.314l-2.717-8.362a5.5,5.5,0,0,1,2-6.167l7.113-5.169a2.964,2.964,0,0,0-1.743-5.363h-8.793a5.5,5.5,0,0,1-5.246-3.811l-2.717-8.362a2.965,2.965,0,0,0-5.639,0l-2.717,8.362a5.5,5.5,0,0,1-5.246,3.811H594.4a2.965,2.965,0,0,0-1.743,5.363l7.114,5.169a5.5,5.5,0,0,1,2,6.167l-2.718,8.362a2.965,2.965,0,0,0,4.562,3.314l7.114-5.168a5.508,5.508,0,0,1,3.242-1.057Z" transform="translate(-91.565 -69.312)" fill="#133e79"/>
    <path id="Caminho_145" data-name="Caminho 145" d="M255.816,461.5a8.292,8.292,0,0,0,0,16.583H675.5a8.292,8.292,0,1,0,0-16.583Z" transform="translate(-185.655 -104.321)" fill="#ccc"/>
    <path id="Caminho_146" data-name="Caminho 146" d="M255.816,495.5a8.292,8.292,0,0,0,0,16.583H675.5a8.292,8.292,0,1,0,0-16.583Z" transform="translate(-185.655 -94.95)" fill="#ccc"/>
    <path id="Caminho_147" data-name="Caminho 147" d="M255.816,529.5a8.292,8.292,0,1,0,0,16.583H675.5a8.292,8.292,0,1,0,0-16.583Z" transform="translate(-185.655 -85.578)" fill="#ccc"/>
    <path id="Caminho_148" data-name="Caminho 148" d="M255.816,461.5a8.292,8.292,0,0,0,0,16.583H675.5a8.292,8.292,0,1,0,0-16.583Z" transform="translate(-185.655 -104.321)" fill="#b8c9e1"/>
    <path id="Caminho_149" data-name="Caminho 149" d="M255.816,495.5a8.292,8.292,0,0,0,0,16.583H675.5a8.292,8.292,0,1,0,0-16.583Z" transform="translate(-185.655 -94.95)" fill="#b8c9e1"/>
    <path id="Caminho_150" data-name="Caminho 150" d="M255.816,529.5a8.292,8.292,0,1,0,0,16.583H675.5a8.292,8.292,0,1,0,0-16.583Z" transform="translate(-185.655 -85.578)" fill="#b8c9e1"/>
    <path id="Caminho_151" data-name="Caminho 151" d="M750.1,361.365H207.953a8.939,8.939,0,0,1-8.929-8.929V190.429a8.939,8.939,0,0,1,8.929-8.929H750.1a8.94,8.94,0,0,1,8.93,8.929V352.435a8.94,8.94,0,0,1-8.929,8.929ZM207.953,184.051a6.386,6.386,0,0,0-6.378,6.378V352.435a6.386,6.386,0,0,0,6.378,6.378H750.1a6.386,6.386,0,0,0,6.378-6.378V190.429a6.386,6.386,0,0,0-6.378-6.378Z" transform="translate(-199.024 -181.5)" fill="#133e79"/>
    <path id="Caminho_152" data-name="Caminho 152" d="M399.928,386.195a5.006,5.006,0,0,1-2.952-.977l-7.113-5.168a3.447,3.447,0,0,0-4.066,0l-7.113,5.168a5.022,5.022,0,0,1-7.728-5.614l2.717-8.362a3.451,3.451,0,0,0-1.256-3.868l-7.113-5.168a5.022,5.022,0,0,1,2.951-9.084h8.793a3.45,3.45,0,0,0,3.29-2.39l2.717-8.362a5.022,5.022,0,0,1,9.552,0l2.717,8.362a3.45,3.45,0,0,0,3.289,2.39h8.793a5.022,5.022,0,0,1,2.951,9.084l-7.113,5.168a3.451,3.451,0,0,0-1.256,3.868L404.7,379.6a4.946,4.946,0,0,1-1.824,5.614,5.006,5.006,0,0,1-2.951.977Z" transform="translate(-153.762 -138.115)" fill="#133e79"/>
    <path id="Caminho_153" data-name="Caminho 153" d="M456.436,386.195a5.007,5.007,0,0,1-2.952-.977l-7.114-5.168a3.447,3.447,0,0,0-4.066,0l-7.114,5.168a5.022,5.022,0,0,1-7.728-5.614l2.717-8.362a3.451,3.451,0,0,0-1.256-3.868l-7.114-5.168a5.022,5.022,0,0,1,2.952-9.084h8.793a3.45,3.45,0,0,0,3.289-2.39l2.717-8.362a5.022,5.022,0,0,1,9.552,0l2.717,8.362a3.451,3.451,0,0,0,3.29,2.39h8.793a5.022,5.022,0,0,1,2.952,9.084l-7.114,5.168a3.45,3.45,0,0,0-1.257,3.868l2.717,8.362a4.946,4.946,0,0,1-1.824,5.614,5.006,5.006,0,0,1-2.951.978Z" transform="translate(-138.186 -138.115)" fill="#133e79"/>
    <path id="Caminho_154" data-name="Caminho 154" d="M512.945,386.195a5.005,5.005,0,0,1-2.951-.977l-7.114-5.168a3.455,3.455,0,0,0-4.066,0l-7.113,5.168a5.021,5.021,0,0,1-7.727-5.614l2.717-8.362a3.451,3.451,0,0,0-1.256-3.868l-7.114-5.168a5.022,5.022,0,0,1,2.952-9.084h8.793a3.45,3.45,0,0,0,3.29-2.39l2.717-8.362a5.021,5.021,0,0,1,9.552,0l2.717,8.362a3.45,3.45,0,0,0,3.29,2.39h8.793a5.022,5.022,0,0,1,2.952,9.084l-7.113,5.168A3.451,3.451,0,0,0,515,371.241l2.717,8.362a4.946,4.946,0,0,1-1.824,5.614,5.007,5.007,0,0,1-2.952.978Z" transform="translate(-122.61 -138.115)" fill="#133e79"/>
    <path id="Caminho_155" data-name="Caminho 155" d="M601.873,386.8a5.5,5.5,0,0,1-3.242-1.073,5.435,5.435,0,0,1-2-6.168l2.718-8.362a2.958,2.958,0,0,0-1.077-3.314l-7.114-5.169a5.516,5.516,0,0,1,3.242-9.978h8.792a2.957,2.957,0,0,0,2.819-2.049l2.717-8.362a5.516,5.516,0,0,1,10.492,0l2.717,8.362a2.957,2.957,0,0,0,2.819,2.049h8.793a5.516,5.516,0,0,1,3.242,9.978l-7.113,5.169A2.956,2.956,0,0,0,628.6,371.2l2.717,8.362a5.516,5.516,0,0,1-8.488,6.167l-7.113-5.168a2.957,2.957,0,0,0-3.485,0l-7.114,5.168a5.5,5.5,0,0,1-3.241,1.073Zm12.1-9.362a5.505,5.505,0,0,1,3.241,1.056l7.114,5.168a2.964,2.964,0,0,0,4.562-3.314l-2.717-8.362a5.5,5.5,0,0,1,2-6.167l7.113-5.169a2.965,2.965,0,0,0-1.743-5.363h-8.793a5.5,5.5,0,0,1-5.246-3.811l-2.717-8.362a2.965,2.965,0,0,0-5.639,0l-2.717,8.362a5.5,5.5,0,0,1-5.246,3.811H594.4a2.965,2.965,0,0,0-1.743,5.363l7.114,5.169a5.5,5.5,0,0,1,2,6.167l-2.718,8.362a2.965,2.965,0,0,0,4.562,3.314l7.114-5.168a5.506,5.506,0,0,1,3.242-1.057Z" transform="translate(-91.565 -138.222)" fill="#133e79"/>
    <path id="Caminho_156" data-name="Caminho 156" d="M544.872,386.636a5.5,5.5,0,0,1-3.242-1.073,5.435,5.435,0,0,1-2-6.168l2.718-8.362a2.958,2.958,0,0,0-1.077-3.314l-7.114-5.169a5.516,5.516,0,0,1,3.242-9.978h8.793a2.957,2.957,0,0,0,2.819-2.049l2.718-8.362a5.516,5.516,0,0,1,10.492,0l2.717,8.362a2.957,2.957,0,0,0,2.819,2.049h8.793a5.516,5.516,0,0,1,3.242,9.978l-7.114,5.169a2.956,2.956,0,0,0-1.077,3.314l2.717,8.362a5.516,5.516,0,0,1-8.488,6.167l-7.113-5.168a2.957,2.957,0,0,0-3.485,0l-7.113,5.168a5.5,5.5,0,0,1-3.242,1.073Zm12.1-9.362a5.5,5.5,0,0,1,3.241,1.056l7.114,5.169a2.964,2.964,0,0,0,4.562-3.314l-2.717-8.362a5.5,5.5,0,0,1,2-6.167l7.113-5.169a2.965,2.965,0,0,0-1.742-5.363h-8.793a5.5,5.5,0,0,1-5.246-3.811l-2.717-8.362a2.965,2.965,0,0,0-5.639,0l-2.717,8.362a5.5,5.5,0,0,1-5.246,3.811h-8.793a2.965,2.965,0,0,0-1.743,5.363l7.114,5.169a5.5,5.5,0,0,1,2,6.167l-2.718,8.362a2.965,2.965,0,0,0,4.562,3.314l7.114-5.168a5.507,5.507,0,0,1,3.242-1.057Z" transform="translate(-107.276 -138.266)" fill="#133e79"/>
    <path id="Caminho_157" data-name="Caminho 157" d="M255.816,211.5a8.292,8.292,0,0,0,0,16.583H675.5a8.292,8.292,0,1,0,0-16.583Z" transform="translate(-185.655 -173.231)" fill="#ccc"/>
    <path id="Caminho_158" data-name="Caminho 158" d="M255.816,245.5a8.292,8.292,0,1,0,0,16.583H675.5a8.292,8.292,0,1,0,0-16.583Z" transform="translate(-185.655 -163.859)" fill="#ccc"/>
    <path id="Caminho_159" data-name="Caminho 159" d="M255.816,279.5a8.292,8.292,0,0,0,0,16.583H675.5a8.292,8.292,0,1,0,0-16.583Z" transform="translate(-185.655 -154.488)" fill="#ccc"/>
    <path id="Caminho_160" data-name="Caminho 160" d="M255.816,211.5a8.292,8.292,0,0,0,0,16.583H675.5a8.292,8.292,0,1,0,0-16.583Z" transform="translate(-185.655 -173.231)" fill="#b8c9e1"/>
    <path id="Caminho_161" data-name="Caminho 161" d="M255.816,245.5a8.292,8.292,0,1,0,0,16.583H675.5a8.292,8.292,0,1,0,0-16.583Z" transform="translate(-185.655 -163.859)" fill="#b8c9e1"/>
    <path id="Caminho_162" data-name="Caminho 162" d="M255.816,279.5a8.292,8.292,0,0,0,0,16.583H675.5a8.292,8.292,0,1,0,0-16.583Z" transform="translate(-185.655 -154.488)" fill="#b8c9e1"/>
  </g>
</svg>
