<svg id="undraw_educator_re_ju47" xmlns="http://www.w3.org/2000/svg" width="851.034" height="557.347" viewBox="0 0 851.034 557.347">
  <path id="Caminho_163" data-name="Caminho 163" d="M785.2,269.129H95.109a16.8,16.8,0,0,1-16.775-16.776V16.775A16.794,16.794,0,0,1,95.109,0H785.2a16.794,16.794,0,0,1,16.775,16.775V252.353A16.8,16.8,0,0,1,785.2,269.129ZM95.109,2A14.792,14.792,0,0,0,80.334,16.775V252.353a14.793,14.793,0,0,0,14.775,14.776H785.2a14.793,14.793,0,0,0,14.775-14.776V16.775A14.792,14.792,0,0,0,785.2,2Z" fill="#133e79"/>
  <rect id="uuid-dac6dc9f-03bc-4283-a90c-97bcdcbf45dc" width="851.034" height="1.683" transform="translate(0 550.557)" fill="#e6e6e6"/>
  <rect id="uuid-2f9646f7-bb94-4523-8d2e-fd8f0877664c" width="851.034" height="1.683" transform="translate(0 464.557)" fill="#e6e6e6"/>
  <g id="Grupo_12" data-name="Grupo 12">
    <path id="uuid-bb35f39c-94aa-41c4-b5d9-34ca9a9e88f1-1064" d="M387.84,277.792c.611,7.68,5.069,13.59,9.957,13.2s8.353-6.931,7.741-14.613a19.281,19.281,0,0,0-2.728-8.688l-3-32.507-15.225,1.733,4.574,31.863a19.282,19.282,0,0,0-1.318,9.013Z" fill="#ffb6b6"/>
    <path id="Caminho_164" data-name="Caminho 164" d="M369.653,126.133s14.232-7.534,21.448,3.725,12.2,133.021,12.2,133.021l-20,2.135-3.792-85.8-9.852-53.078Z" fill="#e6e6e6"/>
    <g id="Grupo_10" data-name="Grupo 10">
      <path id="Caminho_165" data-name="Caminho 165" d="M340.114,458.2H351.7l5.512-44.694h-17.1Z" fill="#ffb6b6"/>
      <path id="Caminho_166" data-name="Caminho 166" d="M379.814,457.941h0a9.949,9.949,0,0,1,.551,3.275h0a3.933,3.933,0,0,1-3.933,3.933H340.548a2.683,2.683,0,0,1-2.683-2.683v-1.494s-1.775-4.49,1.88-10.025c0,0,4.542,4.334,11.33-2.454l2-3.626,14.489,10.6,8.031.989c1.757.216,3.315-.034,4.218,1.489h0Z" fill="#2f2e41"/>
    </g>
    <g id="Grupo_11" data-name="Grupo 11">
      <path id="Caminho_167" data-name="Caminho 167" d="M407.168,456.286l11.227-2.869-5.721-44.668-16.57,4.234Z" fill="#ffb6b6"/>
      <path id="Caminho_168" data-name="Caminho 168" d="M445.568,446.2h0a9.949,9.949,0,0,1,1.345,3.037h0a3.933,3.933,0,0,1-2.837,4.784l-34.768,8.882a2.683,2.683,0,0,1-3.264-1.935l-.37-1.448s-2.831-3.911-.66-10.178c0,0,5.474,3.074,10.37-5.182l1.042-4.009,16.66,6.681,8.026-1.03c1.756-.225,3.2-.853,4.456.4Z" fill="#2f2e41"/>
    </g>
    <path id="Caminho_169" data-name="Caminho 169" d="M330.527,116.525l-.549-3.987,6.53-15.948L354.449,94.6l3.874,22.831Z" fill="#ffb6b6"/>
    <path id="Caminho_170" data-name="Caminho 170" d="M330.527,116.525l-.549-3.987,6.53-15.948L354.449,94.6l3.874,22.831Z" opacity="0.1"/>
    <path id="Caminho_171" data-name="Caminho 171" d="M309.6,229.158l-7.974,21.928,5.98,11.961,29.9,173.434h19.88l-3.932-153.5,45.85,153.5h19.676L403.157,332.82l-11.828-95.688-7.174-4.432-34.689-19.49Z" fill="#133e79"/>
    <path id="Caminho_172" data-name="Caminho 172" d="M360.43,244.109,348.469,246.1l-15.948-37.876H368.4Z" fill="#e6e6e6"/>
    <path id="Caminho_173" data-name="Caminho 173" d="M384.352,234.141l-23.922,9.968-7.974-17.942L348.469,246.1l-41.864-13.476,5.981-24.4-5.981-79.74,21.112-14.074,2.81-1.874,25.916,1.994,2.272,1.236,15.669,8.731,3.987,65.786Z" fill="#008940"/>
    <path id="Caminho_174" data-name="Caminho 174" d="M358.715,115.768l-11.243,47.6-19.755-48.96,2.81-1.874,25.916,1.994Z" fill="#e6e6e6"/>
    <path id="Caminho_175" data-name="Caminho 175" d="M339.5,112.538l-3.987,6.867,3.987,2.289-1.993,41.8,7.974,10.841,7.974-16.022-5.981-36.621,1.994-9.156Z" fill="#2f2e41"/>
    <circle id="Elipse_8" data-name="Elipse 8" cx="18.938" cy="18.938" r="18.938" transform="translate(326.541 70.675)" fill="#ffb6b6"/>
    <path id="Caminho_176" data-name="Caminho 176" d="M333.376,91.274l4.092,1.786,1.786-10.715s7.143-3.572,12.5-1.786,14.287,0,14.287,0,0-17.858-12.5-17.858-25,1.786-25,7.143-5.358,10.715-5.358,10.715-7.143,10.715,0,17.858,10.715,7.143,10.715,7.143l-.52-14.287Z" fill="#2f2e41"/>
    <path id="uuid-97233535-ec91-4408-928f-bf1e5273ca3e-1065" d="M296.629,277.232c-.208,7.7,3.6,14.051,8.5,14.182s9.041-6,9.248-13.709a19.281,19.281,0,0,0-1.79-8.928l.468-32.642-15.323.107L298.9,268.41a19.283,19.283,0,0,0-2.268,8.822Z" fill="#ffb6b6"/>
    <path id="Caminho_177" data-name="Caminho 177" d="M315.586,124.462s-12.958-3.987-18.938,7.974S298.641,266,298.641,266h20.116l-5.339-85.72,2.168-55.818Z" fill="#e6e6e6"/>
  </g>
  <g id="Grupo_15" data-name="Grupo 15">
    <path id="Caminho_178" data-name="Caminho 178" d="M812.657,351.008l-48.322-14.792a8.753,8.753,0,0,0-3.3-.352l-244.9,20.843a3.451,3.451,0,0,0-1.219,6.542l7.845,3.822h-.209V550.022h7.392V370.57l24.586,11.978a11.259,11.259,0,0,0,6.062,1.08l2.616-.264V550.023h7.392v-167.4l189.42-19.133V550.023h7.392V362.738l31.416-3.173V550.024h7.392V358.819l5.731-.579a3.705,3.705,0,0,0,.712-7.229Z" fill="#3f3d56"/>
    <path id="Caminho_179" data-name="Caminho 179" d="M587.226,355.982c4.62,0,73-8.316,73-8.316l10.164,13.86-71.148,13.86Z" fill="#fff"/>
    <g id="Grupo_13" data-name="Grupo 13">
      <path id="Caminho_180" data-name="Caminho 180" d="M662.269,542.917,650.39,542.9l-5.572-45.831,17.532.032Z" fill="#a0616a"/>
      <path id="Caminho_181" data-name="Caminho 181" d="M621.57,542.577h0a10.2,10.2,0,0,0-.571,3.357h0a4.032,4.032,0,0,0,4.025,4.039l36.789.063a2.751,2.751,0,0,0,2.755-2.746l0-1.532s1.828-4.6-1.909-10.281c0,0-4.664,4.435-11.611-2.536l-2.046-3.721-14.872,10.838-8.235,1c-1.8.219-3.4-.04-4.327,1.519h0Z" fill="#2f2e41"/>
    </g>
    <g id="Grupo_14" data-name="Grupo 14">
      <path id="Caminho_182" data-name="Caminho 182" d="M726.027,521.6l-9.372,7.069-31.73-32.787,13.834-10.434Z" fill="#a0616a"/>
      <path id="Caminho_183" data-name="Caminho 183" d="M693.757,545.615h0a10.079,10.079,0,0,0,1.553,2.986h0a3.985,3.985,0,0,0,5.581.781l29.024-21.9a2.718,2.718,0,0,0,.533-3.807l-.912-1.208s-1.3-4.715-7.637-6.961c0,0-1.03,6.277-10.661,4.928l-3.831-1.712-5.253,17.411-5.892,5.7c-1.289,1.247-2.7,2-2.5,3.778h0Z" fill="#2f2e41"/>
    </g>
    <path id="Caminho_184" data-name="Caminho 184" d="M701.2,284.74A19.836,19.836,0,1,1,681.365,264.9,19.836,19.836,0,0,1,701.2,284.74Z" fill="#a0616a"/>
    <path id="Caminho_185" data-name="Caminho 185" d="M699.331,399.107s-73.032-4.134-77.166,4.134,22.348,121.833,22.348,121.833l23.627-4.952-11.526-79.677s60.943,16.14,69.211-3.151,5.888-26.475,5.888-26.475l-32.382-11.713Z" fill="#2f2e41"/>
    <path id="Caminho_186" data-name="Caminho 186" d="M718.043,385.229s-71.524,15.333-73.323,24.4S698.5,521.21,698.5,521.21l21.475-11.025-32.193-73.789s63.042-.557,65.912-21.348-1.326-27.089-1.326-27.089l-34.327-2.729Z" fill="#2f2e41"/>
    <path id="Caminho_187" data-name="Caminho 187" d="M726.2,307.472H691.84l-23.512,38.583s-5.512,24.934,0,27.624,5.512,31.628,5.512,31.628l57.874,5.512s8.268-86.811,5.512-95.079a12.052,12.052,0,0,0-11.024-8.268Z" fill="#133e79"/>
    <path id="Caminho_188" data-name="Caminho 188" d="M671.772,332.965l-3.445,40.715L629.58,357.235l-9.248-4.651a18.639,18.639,0,0,0-6.855-5.523c-6.7-3.264-13.807-2.456-15.884,1.805s1.667,10.36,8.363,13.621a18.64,18.64,0,0,0,8.576,2l27.058,15.368.032-.06.12.214,42.432,17.723,9.763-53.449-22.165-11.315Z" fill="#a0616a"/>
    <path id="Caminho_189" data-name="Caminho 189" d="M667.638,287.492s-20.669,2.756-12.4-15.158c0,0-1.261-9.711,4.882-10.367s14.41-11.68,14.41-11.68,18.955-9.646,28.769,0,38.751,66.142,38.751,66.142L722.757,337.1s-11.6-30.489-25.09-26.957S671.772,324.2,671.772,324.2s-13.693-6.853-7.535-12.825S667.638,287.492,667.638,287.492Z" fill="#2f2e41"/>
    <path id="Caminho_190" data-name="Caminho 190" d="M695.2,317.807s-9.646-12.4-16.536-2.756a147.052,147.052,0,0,0-12.4,22.047l27.559,9.646Z" fill="#133e79"/>
    <path id="Caminho_191" data-name="Caminho 191" d="M799.836,547.279l-32.019-101.77h.079l-.129-.166,0,0-2.281-7.249h0a18.346,18.346,0,0,0,6.311-12.2l-14.636-80.5A18.453,18.453,0,0,0,739.446,325.2l-33.024-.083a18.432,18.432,0,0,0-18.886,15.745l-.73,4.934-10.118,68.829a18.207,18.207,0,0,0,.36,7.2l-7.281.952-2.208.3-8.732,1.137-.028.009-1.09.139h-1.183v29.568h.074v94.507a1.113,1.113,0,0,0,2.227,0V453.926h12.955l12.927,94.4a1.123,1.123,0,0,0,1.109.961.792.792,0,0,0,.148-.009,1.115,1.115,0,0,0,.952-1.257l-12.88-94.091h62.157a28.214,28.214,0,0,0,16.547-5.312l24.645,99.535a1.113,1.113,0,1,0,2.157-.549L754.66,447.1c.331-.276.662-.57.975-.873l9.893-.582,32.186,102.3a1.113,1.113,0,1,0,2.123-.668Zm-36.468-107.61c.083-.046.157-.1.231-.148h0l.238.756Z" fill="#e6e6e6"/>
  </g>
  <g id="Grupo_21" data-name="Grupo 21">
    <g id="Grupo_16" data-name="Grupo 16">
      <path id="Caminho_192" data-name="Caminho 192" d="M171.565,374.775l21.549-13.7,8.761,5.284-30.31,34.828Z" fill="#ffb6b6"/>
      <path id="Caminho_193" data-name="Caminho 193" d="M142.1,321.733s-14.313,3.368-7.577,22.732,28.626,59.778,35.361,57.252,7.577-27.784,7.577-27.784-.842.842-4.21-2.526-3.368-1.83-3.368-5.546a10.174,10.174,0,0,0-2.755-6.47l-3.139-6.507s0-30.31-12.629-31.994-9.261.842-9.261.842Z" fill="#e6e6e6"/>
      <ellipse id="Elipse_9" data-name="Elipse 9" cx="14.313" cy="8.84" rx="14.313" ry="8.84" transform="translate(186.347 363.069) rotate(-45)" fill="#ffb6b6"/>
    </g>
    <g id="Grupo_17" data-name="Grupo 17">
      <path id="Caminho_194" data-name="Caminho 194" d="M86.348,433.29l14.7,24.338,85.689-5.071-22.816-29.408Z" fill="#e6e6e6"/>
      <path id="Caminho_195" data-name="Caminho 195" d="M111.952,547.12a1.014,1.014,0,0,1-1-.876L85.343,359.237a1.014,1.014,0,1,1,2.009-.275l25.605,187.007a1.014,1.014,0,0,1-1.006,1.152Z" fill="#e6e6e6"/>
      <path id="Caminho_196" data-name="Caminho 196" d="M86.348,547.358a1.014,1.014,0,0,1-1.014-1.014V359.135a1.014,1.014,0,0,1,2.028,0V546.344A1.014,1.014,0,0,1,86.348,547.358Z" fill="#e6e6e6"/>
      <path id="Caminho_197" data-name="Caminho 197" d="M214.882,546.613a1.015,1.015,0,0,1-.967-.71L153.324,353.319a1.014,1.014,0,1,1,1.935-.609L215.85,545.294a1.015,1.015,0,0,1-.968,1.319Z" fill="#e6e6e6"/>
      <path id="Caminho_198" data-name="Caminho 198" d="M196.374,546.85a1.014,1.014,0,0,1-.982-.764L153.308,376.117a1.014,1.014,0,0,1,1.966-.5l42.084,169.969a1.014,1.014,0,0,1-.984,1.264Z" fill="#e6e6e6"/>
      <path id="Caminho_199" data-name="Caminho 199" d="M86.348,362.117l70.225-1.08L169.5,434.811H87.362Z" fill="#e6e6e6"/>
    </g>
    <g id="Grupo_18" data-name="Grupo 18">
      <path id="Caminho_200" data-name="Caminho 200" d="M194.266,470.6l-17.7,31.158,20.549,4.524,8.567-22.161Z" fill="#ffb6b6"/>
      <path id="Caminho_201" data-name="Caminho 201" d="M182.925,495.873s-.688-5.081-4.731-3.469-15.711,7.605-15.711,7.605,30.434,49.451,36.209,47.147-1.138-16.282-1.138-16.282l1.526-24.708-16.155-10.293Z" fill="#2f2e41"/>
      <path id="Caminho_202" data-name="Caminho 202" d="M116,410.136s-6.315,29.047,13.05,39.15S214.5,434.552,214.5,434.552l-30.31,45.415,21.048,8.469s47.991-63.146,44.623-73.249-26.1-10.945-26.1-10.945l-51.358,2.526-13.471-4.21L116,410.136Z" fill="#2f2e41"/>
    </g>
    <g id="Grupo_19" data-name="Grupo 19">
      <path id="Caminho_203" data-name="Caminho 203" d="M168.084,484.425l-27.823,22.583L157.755,518.7,173.8,501.174Z" fill="#ffb6b6"/>
      <path id="Caminho_204" data-name="Caminho 204" d="M148.322,503.842s1.208-4.983-3.144-4.952-17.4,1.367-17.4,1.367,10.353,57.135,16.571,57.091,4.865-15.58,4.865-15.58l10.412-22.459-11.3-15.466Z" fill="#2f2e41"/>
      <path id="Caminho_205" data-name="Caminho 205" d="M117.181,399.629s-16.451,24.758-2.091,41.215,84.96,17.372,84.96,17.372l-44.758,31.272,16.524,15.548s67.678-41.354,68.218-51.99-20.328-19.692-20.328-19.692l-48.757-16.336L159.934,408.2l-42.753-8.567Z" fill="#2f2e41"/>
    </g>
    <path id="Caminho_206" data-name="Caminho 206" d="M159.443,342.284s-16-5.894-23.574-5.894a10.367,10.367,0,0,0-2.155.236c-4.85,1.027-9.312,5.195-11.45,7.468-.834.892-1.313,1.49-1.313,1.49s.051-.581.152-1.6c.5-5.355,2.332-22.926,5.624-34.174,1.179-4.016,2.534-7.224,4.092-8.781a23.632,23.632,0,0,0,6.079-11.248,22.909,22.909,0,0,0,.657-4.749l-6.138-2.644-1.137-7.426c-.2.876-1.137,2.585-4.277,5.86a5.015,5.015,0,0,1-.876.716c-4.53,2.846-13.766-2.1-18.742-5.22,2.071-7.2,5.826-13.783,12.646-14.86,16-2.526,16-11.787,26.1-1.684.834.833,1.675,1.633,2.517,2.408,3.233,6.18,4.412,14.465,4.833,20.223.3,4.033.227,6.837.227,6.837s4.21,25.258,10.945,30.31-4.21,22.732-4.21,22.732Z" fill="#2f2e41"/>
    <path id="Caminho_207" data-name="Caminho 207" d="M128.292,301.871l-11.377,16.687,25.69,6.888V301.871Z" fill="#ffb6b6"/>
    <path id="Caminho_208" data-name="Caminho 208" d="M128.292,301.871l-11.377,16.687,25.69,6.888V301.871Z" opacity="0.1"/>
    <path id="Caminho_209" data-name="Caminho 209" d="M144.2,317.944l-24.416-10.1s-32.836,14.313-30.31,42.1,26.1,75.775,26.1,75.775l47.149-20.207-5.052-53.884L144.2,317.944Z" fill="#e6e6e6"/>
    <circle id="Elipse_10" data-name="Elipse 10" cx="21.541" cy="21.541" r="21.541" transform="translate(112.193 266.239)" fill="#ffb6b6"/>
    <path id="Caminho_210" data-name="Caminho 210" d="M162.811,279.981c-4.21,4.21-7.577,8.419-7.577,8.419l-1.684-6.736s-.387.286-1.069.741c-2.669,1.819-9.834,6.39-15.584,7.375-2.559.438-4.833.16-6.315-1.381-3.14-3.275-4.075-4.984-4.277-5.86l-1.137,7.426-6.138,2.644s0,9.244,6.736,16a7.718,7.718,0,0,1,.96,1.2c3.216,4.85,5.523,16.721,6.988,26.816,1.3,8.975,1.92,16.536,1.92,16.536s-6.373-7.982-13.37-9.068a9.039,9.039,0,0,0-1.162-.109,2.985,2.985,0,0,0-.387-.017c-7.577,0-23.574,5.894-23.574,5.894s-10.945-17.681-4.21-22.732,10.945-30.31,10.945-30.31a78.178,78.178,0,0,1,2.509-20.5c2.071-7.2,5.826-13.783,12.646-14.86,16-2.526,16-11.787,26.1-1.684.834.833,1.675,1.633,2.517,2.408,9.413,8.655,19.028,13.934,15.163,17.8Z" fill="#2f2e41"/>
    <rect id="Retângulo_20" data-name="Retângulo 20" width="8" height="158" transform="translate(60.334 393)" fill="#3f3d56"/>
    <rect id="Retângulo_21" data-name="Retângulo 21" width="8" height="158" transform="translate(254.334 393)" fill="#3f3d56"/>
    <rect id="Retângulo_22" data-name="Retângulo 22" width="53" height="53" transform="translate(158.334 326)" fill="#133e79"/>
    <g id="Grupo_20" data-name="Grupo 20">
      <path id="Caminho_211" data-name="Caminho 211" d="M127.784,382.352l21.549-13.7,8.761,5.285-30.31,34.828Z" fill="#ffb6b6"/>
      <path id="Caminho_212" data-name="Caminho 212" d="M98.316,329.31S84,332.678,90.739,352.042s28.626,59.778,35.362,57.252,7.577-27.784,7.577-27.784-.842.842-4.21-2.526-3.368-1.83-3.368-5.546a10.174,10.174,0,0,0-2.755-6.47l-3.139-6.507s0-30.31-12.629-31.994-9.261.842-9.261.842Z" fill="#e6e6e6"/>
      <ellipse id="Elipse_11" data-name="Elipse 11" cx="14.313" cy="8.84" rx="14.313" ry="8.84" transform="translate(142.566 370.647) rotate(-45)" fill="#ffb6b6"/>
    </g>
    <rect id="Retângulo_23" data-name="Retângulo 23" width="242" height="18" transform="translate(36.334 387)" fill="#3f3d56"/>
  </g>
  <rect id="Retângulo_24" data-name="Retângulo 24" width="46" height="25" rx="5.13" transform="translate(483.334 243)" fill="#008940"/>
  <rect id="Retângulo_25" data-name="Retângulo 25" width="46" height="10.26" rx="5.13" transform="translate(558.334 257.74)" fill="#133e79"/>
</svg>
