<svg xmlns="http://www.w3.org/2000/svg" width="543.226" height="633.601" viewBox="0 0 543.226 633.601">
  <g id="undraw_authentication_re_svpt" transform="translate(0 0)">
    <path id="Caminho_213" data-name="Caminho 213" d="M854.052,366.728H345.482a17.112,17.112,0,0,1-17.092-17.092V150.291A17.112,17.112,0,0,1,345.482,133.2h508.57a17.112,17.112,0,0,1,17.092,17.092V349.636a17.112,17.112,0,0,1-17.092,17.092Z" transform="translate(-328.39 -133.199)" fill="#f2f2f2"/>
    <path id="Caminho_214" data-name="Caminho 214" d="M735.442,355.827H426.21a87.014,87.014,0,0,1-86.916-86.916V231.026a87.015,87.015,0,0,1,86.916-86.917H773.328a87.015,87.015,0,0,1,86.916,86.917,124.943,124.943,0,0,1-124.8,124.8Z" transform="translate(-328.39 -133.199)" fill="#fff"/>
    <path id="Caminho_215" data-name="Caminho 215" d="M655.673,201.175H451.267a4.408,4.408,0,0,1,0-8.816H655.673a4.408,4.408,0,0,1,0,8.816Z" transform="translate(-328.39 -133.199)" fill="#e6e6e6"/>
    <path id="Caminho_216" data-name="Caminho 216" d="M759.147,248.206H451.267a4.408,4.408,0,1,1,0-8.816h307.88a4.408,4.408,0,0,1,0,8.816Z" transform="translate(-328.39 -133.199)" fill="#e6e6e6"/>
    <path id="Caminho_217" data-name="Caminho 217" d="M759.147,295.237H451.267a4.408,4.408,0,1,1,0-8.816h307.88a4.408,4.408,0,0,1,0,8.816Z" transform="translate(-328.39 -133.199)" fill="#e6e6e6"/>
    <path id="Caminho_218" data-name="Caminho 218" d="M759.147,295.237H451.267a4.408,4.408,0,1,1,0-8.816h307.88a4.408,4.408,0,0,1,0,8.816Z" transform="translate(-328.39 -133.199)" fill="#e6e6e6"/>
    <path id="Caminho_219" data-name="Caminho 219" d="M634.1,253.6a9.089,9.089,0,0,0,11.007,8.547l16.81,27.578,7.155-15.182-17.06-23.861A9.138,9.138,0,0,0,634.1,253.6Z" transform="translate(-328.39 -133.199)" fill="#ffb6b6"/>
    <path id="Caminho_220" data-name="Caminho 220" d="M760.255,332.64l-57.932-31.424L684.05,284.072s-7.944-2.127-5.02-4.71-5.408-5.074-5.408-5.074l-9.809-9.2-13.939,9.863,4.034,6.253s-.278,10.352,5.393,8.361,4.254,6.594,4.254,6.594l33.85,52.471Z" transform="translate(-328.39 -133.199)" fill="#008940"/>
    <circle id="Elipse_12" data-name="Elipse 12" cx="56.586" cy="56.586" r="56.586" transform="translate(204.269 56.663)" fill="#133e79"/>
    <path id="Caminho_221" data-name="Caminho 221" d="M432.044,611.6H420.278l-5.6-45.382h17.365Z" fill="#ffb6b6"/>
    <path id="Caminho_222" data-name="Caminho 222" d="M766.644,765.186h-8.438L756.7,757.22l-3.857,7.966H730.465a5.031,5.031,0,0,1-2.859-9.17l17.871-12.342V735.62l18.8,1.122Z" transform="translate(-328.39 -133.199)" fill="#2f2e41"/>
    <path id="Caminho_223" data-name="Caminho 223" d="M337.942,611.6H326.176l-5.6-45.382h17.365Z" fill="#ffb6b6"/>
    <path id="Caminho_224" data-name="Caminho 224" d="M672.542,765.186H664.1L662.6,757.22l-3.857,7.966H636.363a5.031,5.031,0,0,1-2.859-9.17l17.871-12.342V735.62l18.8,1.122Z" transform="translate(-328.39 -133.199)" fill="#2f2e41"/>
    <rect id="Retângulo_27" data-name="Retângulo 27" width="59.385" height="67.607" transform="translate(360.175 268.381)" fill="#ffb6b6"/>
    <path id="Caminho_225" data-name="Caminho 225" d="M689.936,434.927,679.886,446.8l-17.359,36.545L618.788,587.418l-9.25,22.009,7.47,38.907s1.209,27.411,1.209,31.9c0,9.136,7.641,14.2,7.641,14.2l5.606,29.2,54.36-2.284s-1.9-32.185-13.282-40.3-16.619-50.429-16.619-50.429l-6.187-18.772,60.3-71.478.389,24.985.188,12.093s-8.83,78.656,1.463,93.921.21,13.469.21,13.469l.49,31.488,64.41.457-14.21-90.656s-7.215-5.7-3.355-11.424-3.742-12.74-3.742-12.74l3.41-70.773s-3.775-12.224.665-13.813.583-12.1.583-12.1l.66-13.7L747.95,449.088Z" transform="translate(-328.39 -133.199)" fill="#2f2e41"/>
    <path id="Caminho_226" data-name="Caminho 226" d="M748.864,401.581l6.4-19.186,4.568-6.4,1.827-18.272c0-49.335-11-41.12-11-41.12L744.3,299.256l-29.236-.914-18.729,17.815L680.8,321.64l-6.082,31.6,11.107,33.721,2.741,18.272c-5.228,9.652-4.786,5.087-.457,12.334l51.619,14.161c18.272,6.4,18.272-10.05,14.608-14.161S748.864,401.581,748.864,401.581Z" transform="translate(-328.39 -133.199)" fill="#008940"/>
    <circle id="Elipse_13" data-name="Elipse 13" cx="27.102" cy="27.102" r="27.102" transform="translate(370.409 104.805)" fill="#ffb6b6"/>
    <path id="Caminho_227" data-name="Caminho 227" d="M699.506,307.834" transform="translate(-328.39 -133.199)" fill="#2f2e41"/>
    <path id="Caminho_228" data-name="Caminho 228" d="M762.084,301.284a3.329,3.329,0,0,1-1.855,4.87c-3.636,1.206-5.874,4.723-8.487,7.537s-6.8,5.134-10.123,3.225-3.545-6.752-6.322-9.383c-2.7-2.558-7.2-2.247-10.379-.3l-.1.058a3.351,3.351,0,0,1-5.127-3.41q1.671-8.887,3.34-17.772a59.761,59.761,0,0,1-12.507,18.912,13.757,13.757,0,0,1-5.427,3.819c-1.9.6-3.746-1.361-5.591-1.005,4.586-4.011,20.008-29.72,17.249-46.9l-9.73,1.1a8.944,8.944,0,0,0-2.175-4.1,10.51,10.51,0,0,1-.557,4.413c-1.352.155-2.713.3-4.066.457-1.882.21-3.929.393-5.546-.594-2.7-1.645-2.777-5.536-2.01-8.606,2.247-8.926,9.063-16.39,17.4-20.3s10.808,4.787,19.6,2.01c17.359-5.482,30.661,3.892,35.348,21.287C768.963,271.181,766.1,286.666,762.084,301.284Z" transform="translate(-328.39 -133.199)" fill="#2f2e41"/>
    <path id="Caminho_229" data-name="Caminho 229" d="M837.116,765.776H803.929l-.143-.259c-.424-.77-.834-1.585-1.217-2.423-3.418-7.318-4.863-15.688-6.138-23.073l-.96-5.566a3.437,3.437,0,0,1,5.41-3.362q7.565,5.5,15.136,11c1.911,1.391,4.094,3,6.184,4.739.2-.979.413-1.962.624-2.931a3.439,3.439,0,0,1,6.281-1.086l3.883,6.238c2.832,4.556,5.332,9.045,4.822,13.887a.755.755,0,0,1-.013.176,10.944,10.944,0,0,1-.563,2.331Z" transform="translate(-328.39 -133.199)" fill="#f0f0f0"/>
    <path id="Caminho_230" data-name="Caminho 230" d="M870.425,766.493l-315.358.307a1.191,1.191,0,0,1,0-2.381l315.358-.307a1.191,1.191,0,0,1,0,2.381Z" transform="translate(-328.39 -133.199)" fill="#cacaca"/>
    <path id="Caminho_231" data-name="Caminho 231" d="M584.1,322.609l-34.688-29.294a5.865,5.865,0,0,1-.7-8.257l6.384-7.56a5.865,5.865,0,0,1,8.256-.7L598.046,306.1a5.865,5.865,0,0,1,.7,8.257l-6.384,7.56a5.865,5.865,0,0,1-8.257.7Z" transform="translate(-328.39 -133.199)" fill="#3f3d56"/>
    <path id="Caminho_232" data-name="Caminho 232" d="M551.234,285.668a3.161,3.161,0,0,0,.375,4.449L586.3,319.411a3.161,3.161,0,0,0,4.449-.375l6.384-7.56a3.161,3.161,0,0,0-.375-4.449l-34.688-29.294a3.161,3.161,0,0,0-4.449.375Z" transform="translate(-328.39 -133.199)" fill="#fff"/>
    <path id="Caminho_233" data-name="Caminho 233" d="M571.6,297.056a1.333,1.333,0,0,1-1.054.558l-5.45.125a1.334,1.334,0,1,1-.061-2.667l3.565-.082-3.511-9.265a1.334,1.334,0,1,1,2.494-.945l4.18,11.028a1.334,1.334,0,0,1-.141,1.218Z" transform="translate(-328.39 -133.199)" fill="#133e79"/>
    <path id="Caminho_234" data-name="Caminho 234" d="M572.3,299.384a9.088,9.088,0,0,1,7.3,11.871l25.586,19.71-15.87,5.461-21.864-19.554a9.138,9.138,0,0,1,4.848-17.489Z" transform="translate(-328.39 -133.199)" fill="#ffb6b6"/>
    <path id="Caminho_235" data-name="Caminho 235" d="M705.505,309.129,640,349.407s-26.413-9.773-21.251-14.3-11.271-7.583-11.271-7.583l-18.153-12.213-10.534,12.242s1.919,19.885,5.185,16.442,8.147,5.963,8.147,5.963,1.443,10.5,10.739,7.859S637.1,382.882,637.1,382.882l80.622-30.069Z" transform="translate(-328.39 -133.199)" fill="#008940"/>
    <path id="Caminho_236" data-name="Caminho 236" d="M587.255,269.147a4.891,4.891,0,0,1-3.913-1.957l-12-16a4.892,4.892,0,0,1,7.827-5.87l7.849,10.465,20.16-30.24a4.892,4.892,0,0,1,8.141,5.427l-24,35.994a4.894,4.894,0,0,1-3.935,2.177Z" transform="translate(-328.39 -133.199)" fill="#fff"/>
  </g>
</svg>
