<svg id="undraw_sign_up_n6im" xmlns="http://www.w3.org/2000/svg" width="653.399" height="468.96" viewBox="0 0 653.399 468.96">
  <path id="Caminho_42" data-name="Caminho 42" d="M19.9,538.075a1.032,1.032,0,0,0,1.035,1.035H654.964a1.035,1.035,0,0,0,0-2.069H20.935A1.032,1.032,0,0,0,19.9,538.075Z" transform="translate(-2.599 -70.149)" fill="#3f3d58"/>
  <path id="Caminho_43" data-name="Caminho 43" d="M220.764,90.923H17.417a14.067,14.067,0,1,1,0-28.133H220.764a14.067,14.067,0,0,1,0,28.133ZM17.417,64.529a12.328,12.328,0,1,0,0,24.656H220.764a12.328,12.328,0,0,0,0-24.656Z" transform="translate(-0.438 -8.202)" fill="#e2e3e4"/>
  <path id="Caminho_44" data-name="Caminho 44" d="M220.829,280.4H17.482a13.632,13.632,0,1,1,0-27.264H220.829a13.632,13.632,0,1,1,0,27.264Z" transform="translate(-0.503 -33.066)" fill="#008940"/>
  <path id="Caminho_45" data-name="Caminho 45" d="M153.689,27.264H13.632A13.632,13.632,0,0,1,13.632,0H153.689a13.632,13.632,0,0,1,0,27.264Z" fill="#e2e3e4"/>
  <path id="Caminho_46" data-name="Caminho 46" d="M220.764,154.2H17.417a14.067,14.067,0,1,1,0-28.133H220.764a14.067,14.067,0,0,1,0,28.133ZM17.417,127.809a12.328,12.328,0,0,0,0,24.656H220.764a12.328,12.328,0,0,0,0-24.656H17.417Z" transform="translate(-0.438 -16.468)" fill="#e2e3e4"/>
  <path id="Caminho_47" data-name="Caminho 47" d="M220.764,217.493H17.417a14.067,14.067,0,0,1,0-28.133H220.764a14.067,14.067,0,0,1,0,28.133ZM17.417,191.1a12.328,12.328,0,0,0,0,24.656H220.764a12.328,12.328,0,0,0,0-24.656H17.417Z" transform="translate(-0.438 -24.735)" fill="#e2e3e4"/>
  <path id="Caminho_48" data-name="Caminho 48" d="M11.144,51.17H64.437a2.3,2.3,0,0,1,2.3,2.3h0a2.308,2.308,0,0,1-2.3,2.3H11.144a2.3,2.3,0,0,1-2.3-2.3h0A2.308,2.308,0,0,1,11.144,51.17Z" transform="translate(-1.155 -6.684)" fill="#e2e3e4"/>
  <path id="Caminho_49" data-name="Caminho 49" d="M11.144,115.95H64.437a2.3,2.3,0,0,1,2.3,2.3h0a2.308,2.308,0,0,1-2.3,2.3H11.144a2.3,2.3,0,0,1-2.3-2.3h0A2.308,2.308,0,0,1,11.144,115.95Z" transform="translate(-1.155 -15.146)" fill="#e2e3e4"/>
  <path id="Caminho_50" data-name="Caminho 50" d="M11.144,180.74H64.437a2.3,2.3,0,0,1,2.3,2.3h0a2.3,2.3,0,0,1-2.3,2.3H11.144a2.3,2.3,0,0,1-2.3-2.3h0A2.3,2.3,0,0,1,11.144,180.74Z" transform="translate(-1.155 -23.609)" fill="#e2e3e4"/>
  <g id="Grupo_30" data-name="Grupo 30" transform="translate(326.324 54.155)">
    <g id="Grupo_5" data-name="Grupo 5">
      <path id="Caminho_51" data-name="Caminho 51" d="M444.159,129.017l-19.439,6.4V107.43h17.64Z" transform="translate(-381.801 -68.188)" fill="#9f616a"/>
      <circle id="Elipse_6" data-name="Elipse 6" cx="19.37" cy="19.37" r="19.37" transform="translate(25.957 8.249)" fill="#9f616a"/>
      <path id="Caminho_52" data-name="Caminho 52" d="M430.337,87.989c-3.243-.1-5.373-3.373-6.633-6.364s-2.556-6.425-5.564-7.659c-2.46-1.008-6.8,5.816-8.737,4-2.026-1.9-.052-11.624,2.1-13.371s5.086-2.087,7.85-2.217A80.447,80.447,0,0,1,439.5,63.994c4.095.852,8.3,2.139,11.258,5.095,3.738,3.756,4.695,9.415,4.964,14.71.278,5.416-.035,11.085-2.669,15.823s-8.146,8.233-13.432,7.025c-.53-2.869.009-5.816.217-8.737s-.009-6.06-1.791-8.381-5.581-3.243-7.651-1.182" transform="translate(-379.69 -62.292)" fill="#2f2e43"/>
      <path id="Caminho_53" data-name="Caminho 53" d="M460.552,99.216c1.939-1.417,4.26-2.608,6.642-2.313a6.7,6.7,0,0,1,5.416,4.947,8.6,8.6,0,0,1-1.678,7.329,12.142,12.142,0,0,1-6.468,4.086,6.825,6.825,0,0,1-4.425-.035,4.505,4.505,0,0,1-2.339-5.547" transform="translate(-386.075 -66.807)" fill="#2f2e43"/>
      <g id="Grupo_4" data-name="Grupo 4" transform="translate(0 54.387)">
        <path id="uuid-00bc58e7-734f-4d7c-a085-03c0cd267642-59" d="M375.707,292.931c-1.3,6.364,1.078,12.18,5.286,12.989s8.668-3.7,9.954-10.067a15.794,15.794,0,0,0-.252-7.668l16.023-99.761-20.039-3.773-7.737,101.283a15.978,15.978,0,0,0-3.234,7.007h0Z" transform="translate(-375.353 -132.661)" fill="#9f616a"/>
        <path id="Caminho_54" data-name="Caminho 54" d="M419.211,124.85H405.536c-9.667,1.469-12.293,6.625-14.493,16.153-3.356,14.536-7.642,33.888-6.79,34.175,1.365.452,24.647,11.406,36.514,8.9l-1.556-59.231Z" transform="translate(-376.501 -124.85)" fill="#e2e3e4"/>
      </g>
      <rect id="Ret창ngulo_16" data-name="Ret창ngulo 16" width="18.205" height="25.829" transform="translate(37.728 372.153)" fill="#9f616a"/>
      <path id="Caminho_55" data-name="Caminho 55" d="M395.691,533.619c-1.913,0-3.617-.043-4.9-.165-4.834-.443-9.45-4.017-11.771-6.1a3.3,3.3,0,0,1-.835-3.721h0a3.27,3.27,0,0,1,2.13-1.887l12.78-3.651,20.691-13.962.235.417a36.872,36.872,0,0,1,2.8,6.286,2.8,2.8,0,0,1-.2,2.33,2.224,2.224,0,0,1-.956.8c.374.391,1.548,1.191,5.164,1.765,5.277.835,6.39-4.634,6.433-4.86l.035-.183.156-.1c2.512-1.617,4.06-2.356,4.59-2.2.33.1.887.27,2.391,15.162a15.31,15.31,0,0,1,.487,7.172c-.774,3.564-16.353,2.339-19.474,2.06-.087.009-11.754.843-19.744.843h0Z" transform="translate(-375.689 -120.005)" fill="#2f2e43"/>
      <rect id="Ret창ngulo_17" data-name="Ret창ngulo 17" width="18.205" height="25.829" transform="translate(92.324 361.493) rotate(-31.95)" fill="#9f616a"/>
      <path id="Caminho_56" data-name="Caminho 56" d="M474.485,527.27a32.6,32.6,0,0,1-5.5-.5,3.308,3.308,0,0,1-2.678-2.712h0a3.263,3.263,0,0,1,.809-2.73l8.911-9.859,10.172-22.8.417.226a36.883,36.883,0,0,1,5.7,3.851,2.77,2.77,0,0,1,1.061,2.086,2.2,2.2,0,0,1-.391,1.191c.522.139,1.939.191,5.312-1.234,4.921-2.078,2.973-7.311,2.886-7.529l-.07-.174.078-.165c1.278-2.7,2.191-4.147,2.73-4.295.339-.1.9-.243,10.05,11.606a15.253,15.253,0,0,1,4.208,5.825c1.226,3.434-12.641,10.641-15.431,12.05-.087.07-14.6,10.615-20.561,13.614a17.365,17.365,0,0,1-7.711,1.556h0Z" transform="translate(-387.228 -117.194)" fill="#2f2e43"/>
      <path id="Caminho_57" data-name="Caminho 57" d="M446.757,241.91H395.785l-4.625,47.416,20.239,175.2H437.42L427.013,363.336l42.208,91.354L492.347,438.5l-32.958-85.286s11.771-74.3,2.521-92.806-15.153-18.5-15.153-18.5h0Z" transform="translate(-377.418 -85.754)" fill="#008940"/>
      <path id="Caminho_58" data-name="Caminho 58" d="M472.117,229.506H391.16L415.45,124.85h35.271Z" transform="translate(-377.418 -70.463)" fill="#e2e3e4"/>
      <path id="uuid-ece83039-1aa0-468e-a846-e0cb6ecd6032-60" d="M488,292.931c1.3,6.364-1.078,12.18-5.286,12.989s-8.668-3.7-9.954-10.067a15.8,15.8,0,0,1,.252-7.668L456.99,188.423l20.039-3.773,7.737,101.283A15.978,15.978,0,0,1,488,292.94h0Z" transform="translate(-386.017 -78.274)" fill="#9f616a"/>
      <path id="Caminho_59" data-name="Caminho 59" d="M443.706,124.85h13.675c9.667,1.469,12.293,6.625,14.493,16.153,3.356,14.536,7.642,33.888,6.79,34.175-1.365.452-24.647,11.406-36.514,8.9l1.556-59.231Z" transform="translate(-384.078 -70.463)" fill="#e2e3e4"/>
    </g>
  </g>
</svg>
